# This file uses centimeters as units for non-parametric coordinates.

mtllib battle_sphere.mtl
g default
v 0.951057 0.000000 -0.309017
v 0.809018 0.000000 -0.587786
v 0.587786 0.000000 -0.809017
v 0.309017 0.000000 -0.951057
v 0.000000 0.000000 -1.000000
v -0.000000 0.000000 1.000000
v 0.309017 0.000000 0.951057
v 0.587785 0.000000 0.809017
v 0.809017 0.000000 0.587785
v 0.951057 0.000000 0.309017
v 1.000000 0.000000 0.000000
v 0.939348 0.156434 -0.305213
v 0.799057 0.156434 -0.580549
v 0.580549 0.156434 -0.799057
v 0.305213 0.156434 -0.939348
v 0.000000 0.156434 -0.987689
v -0.000000 0.156434 0.987688
v 0.305212 0.156434 0.939348
v 0.580549 0.156434 0.799057
v 0.799057 0.156434 0.580549
v 0.939348 0.156434 0.305212
v 0.987688 0.156434 0.000000
v 0.904509 0.309017 -0.293893
v 0.769421 0.309017 -0.559017
v 0.559017 0.309017 -0.769421
v 0.293893 0.309017 -0.904509
v 0.000000 0.309017 -0.951057
v -0.000000 0.309017 0.951057
v 0.293893 0.309017 0.904509
v 0.559017 0.309017 0.769421
v 0.769421 0.309017 0.559017
v 0.904509 0.309017 0.293893
v 0.951057 0.309017 0.000000
v 0.847398 0.453991 -0.275336
v 0.720840 0.453991 -0.523721
v 0.523721 0.453991 -0.720840
v 0.275336 0.453991 -0.847398
v 0.000000 0.453991 -0.891007
v -0.000000 0.453991 0.891007
v 0.275336 0.453991 0.847398
v 0.523721 0.453991 0.720840
v 0.720839 0.453991 0.523721
v 0.847398 0.453991 0.275336
v 0.891007 0.453991 0.000000
v 0.769421 0.587785 -0.250000
v 0.654509 0.587785 -0.475529
v 0.475529 0.587785 -0.654509
v 0.250000 0.587785 -0.769421
v 0.000000 0.587785 -0.809017
v -0.000000 0.587785 0.809017
v 0.250000 0.587785 0.769421
v 0.475528 0.587785 0.654509
v 0.654509 0.587785 0.475528
v 0.769421 0.587785 0.250000
v 0.809017 0.587785 0.000000
v 0.672499 0.707107 -0.218508
v 0.572062 0.707107 -0.415627
v 0.415627 0.707107 -0.572062
v 0.218508 0.707107 -0.672499
v 0.000000 0.707107 -0.707107
v -0.000000 0.707107 0.707107
v 0.218508 0.707107 0.672499
v 0.415627 0.707107 0.572061
v 0.572061 0.707107 0.415627
v 0.672499 0.707107 0.218508
v 0.707107 0.707107 0.000000
v 0.559017 0.809017 -0.181636
v 0.475529 0.809017 -0.345492
v 0.345492 0.809017 -0.475529
v 0.181636 0.809017 -0.559017
v 0.000000 0.809017 -0.587786
v -0.000000 0.809017 0.587785
v 0.181636 0.809017 0.559017
v 0.345491 0.809017 0.475528
v 0.475528 0.809017 0.345492
v 0.559017 0.809017 0.181636
v 0.587785 0.809017 0.000000
v 0.431771 0.891007 -0.140291
v 0.367286 0.891007 -0.266849
v 0.266849 0.891007 -0.367286
v 0.140291 0.891007 -0.431771
v 0.000000 0.891007 -0.453991
v -0.000000 0.891007 0.453991
v 0.140291 0.891007 0.431771
v 0.266849 0.891007 0.367286
v 0.367286 0.891007 0.266849
v 0.431771 0.891007 0.140291
v 0.453991 0.891007 0.000000
v 0.293893 0.951057 -0.095492
v 0.250000 0.951057 -0.181636
v 0.181636 0.951057 -0.250000
v 0.095492 0.951057 -0.293893
v 0.000000 0.951057 -0.309017
v -0.000000 0.951057 0.309017
v 0.095491 0.951057 0.293893
v 0.181636 0.951057 0.250000
v 0.250000 0.951057 0.181636
v 0.293893 0.951057 0.095492
v 0.309017 0.951057 0.000000
v 0.148778 0.987688 -0.048341
v 0.126558 0.987688 -0.091950
v 0.091950 0.987688 -0.126558
v 0.048341 0.987688 -0.148778
v 0.000000 0.987688 -0.156435
v -0.000000 0.987688 0.156434
v 0.048341 0.987688 0.148778
v 0.091950 0.987688 0.126558
v 0.126558 0.987688 0.091950
v 0.148778 0.987688 0.048341
v 0.156434 0.987688 0.000000
v 0.000000 1.000000 0.000000
v 0.001638 0.000000 -0.309017
v -0.005107 0.000000 -0.587786
v 0.003353 0.000000 -0.809017
v 0.006219 0.000000 -0.951057
v -0.006710 0.000000 -1.000000
v 0.002265 0.000000 1.000000
v 0.007851 0.000000 0.951057
v -0.005401 0.000000 0.809017
v 0.004648 0.000000 0.587785
v -0.004041 0.000000 0.309017
v 0.013969 0.000000 0.000000
vt 1.192163 0.138046
vt 1.347169 0.192300
vt -0.435975 0.280924
vt -0.437967 0.196842
vt -0.351663 0.308180
vt -0.353240 0.231962
vt 0.353304 0.231962
vt 0.351727 0.308180
vt 0.436039 0.280924
vt 0.438031 0.196842
vt 0.533333 0.242754
vt 0.535741 0.149376
vt 0.652895 0.192300
vt 0.655520 0.089860
vt 0.807901 0.138046
vt 0.809936 0.030021
vt 1.000032 0.111343
vt 1.000032 0.002129
vt 1.198783 0.268869
vt 1.355530 0.310351
vt -0.429777 0.370646
vt -0.346781 0.387855
vt 0.346845 0.387855
vt 0.429841 0.370646
vt 0.525779 0.345598
vt 0.644534 0.310351
vt 0.801280 0.268869
vt 1.000032 0.246707
vt 1.211873 0.434545
vt -0.418654 0.466587
vt -0.338106 0.471305
vt 0.338170 0.471305
vt 0.418717 0.466587
vt 0.511982 0.459450
vt 0.628781 0.448696
vt 0.788190 0.434545
vt 1.000032 0.426061
vt 1.236172 0.648297
vt -0.489702 0.584836
vt -0.401225 0.568897
vt -0.324717 0.558704
vt 0.324781 0.558704
vt 0.401289 0.568897
vt 0.489766 0.584836
vt 0.602059 0.610417
vt 0.763891 0.648297
vt 1.000032 0.674409
vt -0.455186 0.719118
vt -0.375138 0.676507
vt -0.305064 0.649761
vt 0.305128 0.649761
vt 0.375202 0.676507
vt 0.455249 0.719118
vt 0.557168 0.790205
vt 0.715736 0.904911
vt 1.000031 0.994885
vt -0.480537 0.963969
vt -0.402004 0.853002
vt -0.336626 0.785721
vt -0.276658 0.743102
vt 0.276721 0.743102
vt 0.336690 0.785721
vt 0.402067 0.853002
vt 0.480601 0.963969
vt 0.605321 1.146001
vt -0.362096 1.260347
vt -0.356288 1.086915
vt -0.322010 0.967402
vt -0.280335 0.888130
vt -0.235695 0.835119
vt 0.235759 0.835119
vt 0.280399 0.888130
vt 0.322073 0.967402
vt 0.356352 1.086914
vt 0.362159 1.260346
vt 0.000033 1.430825
vt -0.140075 1.206432
vt -0.202018 1.120221
vt -0.213504 1.036446
vt -0.201230 0.968989
vt -0.177136 0.918185
vt 0.177200 0.918185
vt 0.201294 0.968988
vt 0.213568 1.036445
vt 0.202081 1.120221
vt 0.140139 1.206431
vt 0.000032 1.249044
vt -0.043920 1.102671
vt -0.077484 1.077523
vt -0.096444 1.044384
vt -0.101965 1.010173
vt -0.097099 0.979167
vt 0.097163 0.979167
vt 0.102029 1.010172
vt 0.096508 1.044384
vt 0.077548 1.077523
vt 0.043984 1.102671
vt 0.000032 1.112227
vt 0.000032 1.002143
vt 1.822392 0.048988
vt -0.348421 0.221722
vt -0.351531 0.232598
vt 0.348916 0.221552
vt 0.353883 0.231748
vt 0.323242 0.192160
vt 0.278196 0.132040
vt 0.176045 0.051576
vt 0.000032 -0.011222
vt 1.564025 0.280924
vt 1.570223 0.370646
vt 1.466730 0.242754
vt 1.581346 0.466587
vt 1.474285 0.345598
vt 1.371283 0.448696
vt 1.488081 0.459450
vt 1.510298 0.584836
vt 1.598775 0.568897
vt 1.544814 0.719118
vt 1.398005 0.610417
vt 1.284327 0.904911
vt 1.442895 0.790205
vt 1.519463 0.963969
vt 1.597996 0.853002
vt 1.394742 1.146001
vt 1.637904 1.260347
vt 1.643712 1.086915
vt 1.000031 1.317415
vt 1.344543 0.089861
vt 1.724949 0.134420
vt 1.464323 0.149376
vt 1.674323 0.190893
vt 1.562033 0.196842
vt 1.651579 0.221722
vt 1.190127 0.030021
vt 2.000032 -0.011222
vt 3.000032 0.002129
vn -0.948125 -0.078459 0.308063
vn -0.939675 -0.154249 0.305318
vn -0.799335 -0.154249 0.580751
vn -0.806523 -0.078459 0.585973
vn -0.580751 -0.154249 0.799335
vn -0.585973 -0.078459 0.806523
vn -0.305319 -0.154249 0.939674
vn -0.308064 -0.078459 0.948125
vn -0.154607 -0.152394 0.976152
vn -0.155964 -0.077499 0.984718
vn -0.155964 -0.077499 -0.984718
vn -0.154607 -0.152394 -0.976152
vn -0.305319 -0.154249 -0.939674
vn -0.308064 -0.078459 -0.948125
vn -0.580751 -0.154249 -0.799335
vn -0.585973 -0.078459 -0.806523
vn -0.799335 -0.154249 -0.580751
vn -0.806523 -0.078459 -0.585973
vn -0.939674 -0.154248 -0.305319
vn -0.948125 -0.078459 -0.308064
vn -0.988032 -0.154249 -0.000001
vn -0.996917 -0.078459 -0.000001
vn -0.905806 -0.304789 0.294313
vn -0.770524 -0.304789 0.559819
vn -0.559818 -0.304789 0.770524
vn -0.294314 -0.304789 0.905805
vn -0.149161 -0.301379 0.941765
vn -0.149161 -0.301379 -0.941765
vn -0.294314 -0.304789 -0.905805
vn -0.559818 -0.304789 -0.770524
vn -0.770524 -0.304789 -0.559818
vn -0.905805 -0.304789 -0.294314
vn -0.952420 -0.304789 -0.000001
vn -0.850280 -0.447994 0.276272
vn -0.723291 -0.447994 0.525502
vn -0.525501 -0.447994 0.723291
vn -0.276272 -0.447994 0.850280
vn -0.140203 -0.443569 0.885206
vn -0.140203 -0.443569 -0.885206
vn -0.276273 -0.447994 -0.850280
vn -0.525502 -0.447994 -0.723291
vn -0.723291 -0.447994 -0.525502
vn -0.850280 -0.447994 -0.276273
vn -0.894037 -0.447994 -0.000001
vn -0.774475 -0.580401 0.251641
vn -0.658808 -0.580401 0.478652
vn -0.478652 -0.580401 0.658808
vn -0.251642 -0.580401 0.774475
vn -0.127918 -0.575633 0.807641
vn -0.127918 -0.575633 -0.807641
vn -0.251642 -0.580401 -0.774475
vn -0.478652 -0.580401 -0.658808
vn -0.658808 -0.580401 -0.478652
vn -0.774475 -0.580401 -0.251642
vn -0.814331 -0.580400 -0.000001
vn -0.680318 -0.698789 0.221048
vn -0.578713 -0.698789 0.420460
vn -0.420459 -0.698789 0.578713
vn -0.221049 -0.698789 0.680318
vn -0.112577 -0.694346 0.710781
vn -0.112577 -0.694346 -0.710781
vn -0.221049 -0.698789 -0.680318
vn -0.420460 -0.698788 -0.578713
vn -0.578713 -0.698788 -0.420459
vn -0.680318 -0.698788 -0.221049
vn -0.715328 -0.698788 -0.000001
vn -0.570314 -0.800252 0.185306
vn -0.485138 -0.800252 0.352474
vn -0.352474 -0.800252 0.485138
vn -0.185306 -0.800252 0.570314
vn -0.094552 -0.796667 0.596978
vn -0.094552 -0.796667 -0.596978
vn -0.185306 -0.800252 -0.570315
vn -0.352474 -0.800252 -0.485139
vn -0.485139 -0.800252 -0.352474
vn -0.570314 -0.800252 -0.185306
vn -0.599664 -0.800252 -0.000001
vn -0.447712 -0.882266 0.145470
vn -0.380846 -0.882266 0.276701
vn -0.276701 -0.882266 0.380846
vn -0.145470 -0.882266 0.447712
vn -0.074353 -0.879824 0.469449
vn -0.074353 -0.879823 -0.469449
vn -0.145470 -0.882266 -0.447712
vn -0.276701 -0.882266 -0.380846
vn -0.380846 -0.882266 -0.276701
vn -0.447712 -0.882266 -0.145470
vn -0.470752 -0.882266 -0.000000
vn -0.317252 -0.942723 0.103081
vn -0.269870 -0.942723 0.196072
vn -0.196072 -0.942722 0.269870
vn -0.103081 -0.942722 0.317252
vn -0.052760 -0.941410 0.333113
vn -0.052760 -0.941409 -0.333114
vn -0.103081 -0.942722 -0.317252
vn -0.196072 -0.942723 -0.269870
vn -0.269870 -0.942723 -0.196072
vn -0.317252 -0.942722 -0.103081
vn -0.333578 -0.942722 -0.000000
vn -0.190555 -0.979722 0.061915
vn -0.162096 -0.979722 0.117769
vn -0.117769 -0.979722 0.162095
vn -0.061915 -0.979722 0.190555
vn -0.031718 -0.979229 0.200261
vn -0.031718 -0.979229 -0.200260
vn -0.061915 -0.979722 -0.190555
vn -0.117769 -0.979722 -0.162096
vn -0.162096 -0.979722 -0.117769
vn -0.190555 -0.979722 -0.061915
vn -0.200361 -0.979722 -0.000000
vn -0.050871 -0.998705 0.000000
vn 0.000000 1.000000 0.000000
vn 0.000000 1.000000 0.000000
vn 0.000000 1.000000 0.000000
vn 0.000000 1.000000 0.000000
vn 0.000000 1.000000 0.000000
vn 0.000000 1.000000 0.000000
vn 0.000000 1.000000 0.000000
vn 0.000000 1.000000 0.000000
vn 0.000000 1.000000 0.000000
vn 0.000000 1.000000 0.000000
vn 0.000000 1.000000 0.000000
vn 0.000000 1.000000 0.000000
vn 0.000000 1.000000 0.000000
vn 0.000000 1.000000 0.000000
vn 0.000000 1.000000 0.000000
vn 0.000000 1.000000 0.000000
vn 0.000000 1.000000 0.000000
vn 0.000000 1.000000 0.000000
vn 0.000000 1.000000 0.000000
vn 0.000000 1.000000 0.000000
vn 0.000000 1.000000 0.000000
vn 0.000000 1.000000 0.000000
vn 0.000000 1.000000 0.000000
vn 0.000000 1.000000 0.000000
vn 0.000000 1.000000 0.000000
vn 0.000000 1.000000 0.000000
vn 0.000000 1.000000 0.000000
vn 0.000000 1.000000 0.000000
vn 0.000000 1.000000 0.000000
vn 0.000000 1.000000 0.000000
vn 0.000000 1.000000 0.000000
vn 0.000000 1.000000 0.000000
vn 0.000000 1.000000 0.000000
vn 0.000000 1.000000 0.000000
vn 0.000000 1.000000 0.000000
vn 0.000000 1.000000 0.000000
vn 0.000000 1.000000 0.000000
vn 0.000000 1.000000 0.000000
vn 0.000000 1.000000 0.000000
vn 0.000000 1.000000 0.000000
s 1
g pSphere1
usemtl initialShadingGroup
f 1/134/1 12/1/2 13/2/3 2/128/4
f 2/128/4 13/2/3 14/111/5 3/130/6
f 3/130/6 14/111/5 15/109/7 4/132/8
f 4/4/8 15/3/7 16/5/9 5/6/10
f 6/7/11 17/8/12 18/9/13 7/10/14
f 7/10/14 18/9/13 19/11/15 8/12/16
f 8/12/16 19/11/15 20/13/17 9/14/18
f 9/14/18 20/13/17 21/15/19 10/16/20
f 10/16/20 21/15/19 22/17/21 11/18/22
f 11/18/22 22/17/21 12/1/2 1/134/1
f 12/1/2 23/19/23 24/20/24 13/2/3
f 13/2/3 24/20/24 25/113/25 14/111/5
f 14/111/5 25/113/25 26/110/26 15/109/7
f 15/3/7 26/21/26 27/22/27 16/5/9
f 17/8/12 28/23/28 29/24/29 18/9/13
f 18/9/13 29/24/29 30/25/30 19/11/15
f 19/11/15 30/25/30 31/26/31 20/13/17
f 20/13/17 31/26/31 32/27/32 21/15/19
f 21/15/19 32/27/32 33/28/33 22/17/21
f 22/17/21 33/28/33 23/19/23 12/1/2
f 23/19/23 34/29/34 35/114/35 24/20/24
f 24/20/24 35/114/35 36/115/36 25/113/25
f 25/113/25 36/115/36 37/112/37 26/110/26
f 26/21/26 37/30/37 38/31/38 27/22/27
f 28/23/28 39/32/39 40/33/40 29/24/29
f 29/24/29 40/33/40 41/34/41 30/25/30
f 30/25/30 41/34/41 42/35/42 31/26/31
f 31/26/31 42/35/42 43/36/43 32/27/32
f 32/27/32 43/36/43 44/37/44 33/28/33
f 33/28/33 44/37/44 34/29/34 23/19/23
f 34/29/34 45/38/45 46/119/46 35/114/35
f 35/114/35 46/119/46 47/116/47 36/115/36
f 36/115/36 47/116/47 48/117/48 37/112/37
f 37/30/37 48/40/48 49/41/49 38/31/38
f 39/32/39 50/42/50 51/43/51 40/33/40
f 40/33/40 51/43/51 52/44/52 41/34/41
f 41/34/41 52/44/52 53/45/53 42/35/42
f 42/35/42 53/45/53 54/46/54 43/36/43
f 43/36/43 54/46/54 55/47/55 44/37/44
f 44/37/44 55/47/55 45/38/45 34/29/34
f 45/38/45 56/120/56 57/121/57 46/119/46
f 46/119/46 57/121/57 58/118/58 47/116/47
f 47/39/47 58/48/58 59/49/59 48/40/48
f 48/40/48 59/49/59 60/50/60 49/41/49
f 50/42/50 61/51/61 62/52/62 51/43/51
f 51/43/51 62/52/62 63/53/63 52/44/52
f 52/44/52 63/53/63 64/54/64 53/45/53
f 53/45/53 64/54/64 65/55/65 54/46/54
f 54/46/54 65/55/65 66/56/66 55/47/55
f 55/47/55 66/56/66 56/120/56 45/38/45
f 56/120/56 67/124/67 68/122/68 57/121/57
f 57/121/57 68/122/68 69/123/69 58/118/58
f 58/48/58 69/58/69 70/59/70 59/49/59
f 59/49/59 70/59/70 71/60/71 60/50/60
f 61/51/61 72/61/72 73/62/73 62/52/62
f 62/52/62 73/62/73 74/63/74 63/53/63
f 63/53/63 74/63/74 75/64/75 64/54/64
f 64/54/64 75/64/75 76/65/76 65/55/65
f 65/55/65 76/65/76 77/127/77 66/56/66
f 66/56/66 77/127/77 67/124/67 56/120/56
f 67/124/67 78/125/78 79/126/79 68/122/68
f 68/57/68 79/67/79 80/68/80 69/58/69
f 69/58/69 80/68/80 81/69/81 70/59/70
f 70/59/70 81/69/81 82/70/82 71/60/71
f 72/61/72 83/71/83 84/72/84 73/62/73
f 73/62/73 84/72/84 85/73/85 74/63/74
f 74/63/74 85/73/85 86/74/86 75/64/75
f 75/64/75 86/74/86 87/75/87 76/65/76
f 76/65/76 87/75/87 88/76/88 77/127/77
f 77/127/77 88/76/88 78/125/78 67/124/67
f 78/66/78 89/77/89 90/78/90 79/67/79
f 79/67/79 90/78/90 91/79/91 80/68/80
f 80/68/80 91/79/91 92/80/92 81/69/81
f 81/69/81 92/80/92 93/81/93 82/70/82
f 83/71/83 94/82/94 95/83/95 84/72/84
f 84/72/84 95/83/95 96/84/96 85/73/85
f 85/73/85 96/84/96 97/85/97 86/74/86
f 86/74/86 97/85/97 98/86/98 87/75/87
f 87/75/87 98/86/98 99/87/99 88/76/88
f 88/76/88 99/87/99 89/77/89 78/66/78
f 89/77/89 100/88/100 101/89/101 90/78/90
f 90/78/90 101/89/101 102/90/102 91/79/91
f 91/79/91 102/90/102 103/91/103 92/80/92
f 92/80/92 103/91/103 104/92/104 93/81/93
f 94/82/94 105/93/105 106/94/106 95/83/95
f 95/83/95 106/94/106 107/95/107 96/84/96
f 96/84/96 107/95/107 108/96/108 97/85/97
f 97/85/97 108/96/108 109/97/109 98/86/98
f 98/86/98 109/97/109 110/98/110 99/87/99
f 99/87/99 110/98/110 100/88/100 89/77/89
f 100/88/100 111/99/111 101/89/101
f 101/89/101 111/99/111 102/90/102
f 102/90/102 111/99/111 103/91/103
f 103/91/103 111/99/111 104/92/104
f 105/93/105 111/99/111 106/94/106
f 106/94/106 111/99/111 107/95/107
f 107/95/107 111/99/111 108/96/108
f 108/96/108 111/99/111 109/97/109
f 109/97/109 111/99/111 110/98/110
f 110/98/110 111/99/111 100/88/100
s off
f 2/128/112 113/129/113 112/100/114 1/134/115
f 3/130/116 114/131/117 113/129/118 2/128/119
f 4/132/120 115/133/121 114/131/122 3/130/123
f 5/6/124 116/102/125 115/101/126 4/4/127
f 7/10/128 118/103/129 117/104/130 6/7/131
f 8/12/132 119/105/133 118/103/134 7/10/135
f 9/14/136 120/106/137 119/105/138 8/12/139
f 10/16/140 121/107/141 120/106/142 9/14/143
f 11/18/144 122/108/145 121/107/146 10/16/147
f 1/134/148 112/100/149 122/135/150 11/136/151
